<?xml version="1.0" encoding="UTF-8" standalone="no"?>
<svg width="18px" height="16px" viewBox="0 0 18 16" version="1.1" xmlns="http://www.w3.org/2000/svg" xmlns:xlink="http://www.w3.org/1999/xlink" xmlns:sketch="http://www.bohemiancoding.com/sketch/ns">
    <!-- Generator: Sketch 3.4 (15575) - http://www.bohemiancoding.com/sketch -->
    <title>like_icon</title>
    <desc>Created with Sketch.</desc>
    <defs></defs>
    <g id="Page-1" stroke="none" stroke-width="1" fill="none" fill-rule="evenodd" sketch:type="MSPage">
        <g id="Artboard-1" sketch:type="MSArtboardGroup" transform="translate(-298.000000, -65.000000)" fill="#8B8F99">
            <path d="M314.724219,66.2688653 C313.873781,65.4614625 312.698603,65.057881 311.198438,65.057881 C310.783329,65.057881 310.359712,65.1278814 309.927836,65.2677625 C309.495836,65.4077635 309.094041,65.5966689 308.722575,65.834239 C308.350863,66.0718091 308.031301,66.2948757 307.763274,66.5031991 C307.495493,66.7115224 307.241027,66.9329109 307,67.1672447 C306.758849,66.9329109 306.504384,66.7115224 306.236603,66.5031991 C305.968699,66.2948757 305.649014,66.071929 305.277301,65.834239 C304.905589,65.596549 304.503795,65.4077635 304.071918,65.2677625 C303.640041,65.1278814 303.216425,65.057881 302.801315,65.057881 C301.301274,65.057881 300.126096,65.4615823 299.275658,66.2688653 C298.425219,67.0761482 298,68.1959161 298,69.6281691 C298,70.0643536 298.078781,70.5137231 298.236096,70.9757982 C298.393411,71.4379931 298.572671,71.8319856 298.773507,72.1574159 C298.974342,72.4828462 299.202055,72.8003655 299.456521,73.1096142 C299.710986,73.4188629 299.896904,73.6319808 300.014027,73.7492076 C300.131151,73.8663146 300.223247,73.9509384 300.290192,74.0029593 L306.558014,79.8819208 C306.678589,79.9992675 306.825918,80.057881 307,80.057881 C307.174082,80.057881 307.321411,79.9992675 307.441986,79.8821606 L313.699822,74.022617 C315.233274,72.5318705 316,71.0670146 316,69.6281691 C316,68.1959161 315.574658,67.0761482 314.724219,66.2688653 L314.724219,66.2688653 Z" id="like_icon" sketch:type="MSShapeGroup"></path>
        </g>
    </g>
</svg>