<?xml version="1.0" encoding="UTF-8" standalone="no"?>
<svg width="40px" height="40px" viewBox="0 0 40 40" version="1.1" xmlns="http://www.w3.org/2000/svg" xmlns:xlink="http://www.w3.org/1999/xlink" xmlns:sketch="http://www.bohemiancoding.com/sketch/ns">
    <!-- Generator: Sketch 3.4 (15575) - http://www.bohemiancoding.com/sketch -->
    <title>play_icon</title>
    <desc>Created with Sketch.</desc>
    <defs></defs>
    <g id="Page-1" stroke="none" stroke-width="1" fill="none" fill-rule="evenodd" sketch:type="MSPage">
        <g id="Artboard-1" sketch:type="MSArtboardGroup" transform="translate(-383.000000, -243.000000)" fill="#8B8F99">
            <g id="play_icon" sketch:type="MSLayerGroup" transform="translate(383.000000, 243.000000)">
                <path d="M20,40 C31.045695,40 40,31.045695 40,20 C40,8.954305 31.045695,0 20,0 C8.954305,0 0,8.954305 0,20 C0,31.045695 8.954305,40 20,40 Z M20,37 C29.3888407,37 37,29.3888407 37,20 C37,10.6111593 29.3888407,3 20,3 C10.6111593,3 3,10.6111593 3,20 C3,29.3888407 10.6111593,37 20,37 Z" id="oval" sketch:type="MSShapeGroup"></path>
                <path d="M26.2547309,21.2164353 C23.5361504,23.3912997 20.9589369,25.4286513 18.2403564,27.6035156 C17.8759245,27.8950612 17.428573,28.1080889 17.2216361,28.0371094 C17.0146993,27.9661298 17.0056937,27.4753229 17.0056937,27.0587769 C17.0056937,22.488999 17.0056937,18.2264713 17.0056937,13.6566935 C17.0056937,13.309684 16.9447498,13.1268135 17.2216361,13.02869 C17.4985225,12.9305665 17.6068978,13.0966283 17.9074998,13.3371099 C20.289685,15.2428581 24.5430568,18.6455555 26.2582107,20.0176786 C26.7265986,20.392389 26.6808475,20.3774449 26.6817191,20.6156651 C26.6825908,20.8538853 26.5050519,21.0161786 26.2547309,21.2164353 Z" id="triangle" sketch:type="MSShapeGroup"></path>
            </g>
        </g>
    </g>
</svg>