<?xml version="1.0" encoding="UTF-8" standalone="no"?>
<svg width="18px" height="12px" viewBox="0 0 18 12" version="1.1" xmlns="http://www.w3.org/2000/svg" xmlns:xlink="http://www.w3.org/1999/xlink" xmlns:sketch="http://www.bohemiancoding.com/sketch/ns">
    <!-- Generator: Sketch 3.4 (15575) - http://www.bohemiancoding.com/sketch -->
    <title>save_icon</title>
    <desc>Created with Sketch.</desc>
    <defs></defs>
    <g id="Page-1" stroke="none" stroke-width="1" fill="none" fill-rule="evenodd" sketch:type="MSPage">
        <g id="Artboard-1" sketch:type="MSArtboardGroup" transform="translate(-298.000000, -93.000000)" fill="#8B8F99">
            <path d="M315.216851,99.694434 C314.694905,99.1006843 314.027859,98.7158349 313.215253,98.5396766 C313.471623,98.1874646 313.599578,97.7953973 313.599578,97.3635793 C313.599578,96.7612518 313.365186,96.2471081 312.896516,95.8209388 C312.427846,95.3948743 311.86229,95.1817897 311.199732,95.1817897 C310.605984,95.1817897 310.087259,95.357948 309.643559,95.7102646 C309.274998,94.8920281 308.685738,94.2358279 307.876469,93.7415595 C307.067199,93.2471865 306.174966,93 305.199885,93 C303.874998,93 302.743655,93.4262738 301.806201,94.2785076 C300.868631,95.1306368 300.399962,96.1591335 300.399962,97.3636839 C300.399962,97.4375365 300.40629,97.5597176 300.418718,97.7301225 C299.68125,98.0425838 299.093831,98.5113281 298.65623,99.1362507 C298.218743,99.7613826 298,100.443002 298,101.181842 C298,102.232934 298.411021,103.132032 299.232833,103.879135 C300.054644,104.626448 301.043764,105 302.199962,105 L312.400115,105 C313.393722,105 314.242115,104.680216 314.945292,104.041172 C315.648354,103.402022 316,102.630754 316,101.727263 C315.999885,100.965933 315.738912,100.288393 315.216851,99.694434 L315.216851,99.694434 Z M309.906258,100.022586 L306.61556,103.014244 C306.559407,103.065292 306.48749,103.090921 306.399923,103.090921 C306.312472,103.090921 306.240555,103.065292 306.184287,103.014244 L302.884383,100.014218 C302.828115,99.963065 302.800038,99.8977902 302.800038,99.8181842 C302.800038,99.7443316 302.829611,99.6804167 302.888985,99.6264394 C302.948475,99.5724622 303.018666,99.5454736 303.099904,99.5454736 L305.199885,99.5454736 L305.199885,96.545552 C305.199885,96.4716994 305.229572,96.4077845 305.288947,96.3537027 C305.348322,96.29983 305.418628,96.2728414 305.499866,96.2728414 L307.299981,96.2728414 C307.381334,96.2728414 307.45141,96.2997254 307.511015,96.3537027 C307.570274,96.4077845 307.599962,96.4716994 307.599962,96.545552 L307.599962,99.5454736 L309.699942,99.5454736 C309.787394,99.5454736 309.859311,99.5711023 309.915464,99.6221505 C309.971732,99.6731988 309.999693,99.7385782 309.999693,99.8181842 C309.999693,99.8865972 309.968625,99.9545918 309.906258,100.022586 L309.906258,100.022586 Z" id="save_icon" sketch:type="MSShapeGroup"></path>
        </g>
    </g>
</svg>